<?xml version="1.0" encoding="UTF-8" standalone="no"?>
<!-- Copyright 2017 mathsisfun.com -->
<svg xmlns="http://www.w3.org/2000/svg" width="530.9" height="570.5" version="1.1">
<defs>
<marker id="id1" style="overflow:visible;" orient="auto">
<path transform="matrix(-0.4,0,0,-0.4,-4,0)" style="fill:#eec73e; stroke:#eec73e; stroke-width:1pt;" d="M 0,0 5,-5 -12.5,0 5,5 0,0 Z"/>
</marker>
</defs>
<polyline points="196.387,1 196.387,10.47 186.917,10.47 " transform="matrix(0.851944,0,0,0.851944,178.407,148.258)" style="fill:none; stroke:black; stroke-linecap:round;"/>
<polyline points="186.917,42.598 196.388,42.598 196.388,52.068 " transform="matrix(0.851944,0,0,0.851944,178.407,148.258)" style="fill:none; stroke:black; stroke-linecap:round;"/>
<polygon points="238.49,52.067 155.869,52.067 163.869,1 208.49,1 " style="fill:none; stroke:black; stroke-width:2; stroke-linecap:round;" transform="matrix(0.851944,0,0,0.851944,178.407,148.258)"/>
<g transform="matrix(0.347668,0,0,0.347668,-530.065,298.939)">
<path style="fill:none; stroke:#ff0000; stroke-width:2.45; stroke-linecap:round;" d="m 1729.8,277.6 c -4.4,7.7 -12.7,12.8 -22.2,12.8 -9.5,0 -17.8,-5.2 -22.2,-12.8"/>
<path style="fill:none; stroke:#ff0000; stroke-width:2.45; stroke-linecap:round;" d="m 1685.4,395.8 c 4.4,-7.7 12.7,-12.8 22.2,-12.8 9.5,0 17.8,5.2 22.2,12.8"/>
<path style="fill:none; stroke:#00af00; stroke-width:2.45; stroke-linecap:round;" d="m 1810.4,349.5 c -2.2,-3.8 -3.4,-8.1 -3.4,-12.8 0,-4.7 1.2,-9 3.4,-12.8"/>
<path style="fill:none; stroke:#00af00; stroke-width:2.45; stroke-linecap:round;" d="m 1604.8,324 c 2.2,3.8 3.4,8.1 3.4,12.8 0,4.7 -1.2,9 -3.4,12.8"/>
<polygon points="151,180.524 202,151.191 253,180.524 202,209.858 " style="fill:none; stroke:#ff0000; stroke-width:2; stroke-linecap:round;" transform="matrix(2.45045,0,0,2.45045,1212.59,-105.633)"/>
</g>
<g transform="matrix(0.347668,0,0,0.347668,-503.835,394.658)">
<polyline points="481.666,158.995 491.136,158.995 491.136,149.525 " transform="matrix(2.45045,0,0,2.45045,777.557,-96.5722)" style="fill:none; stroke:black; stroke-linecap:round;"/>
<polyline points="539.195,149.525 539.195,158.995 548.665,158.995 " transform="matrix(2.45045,0,0,2.45045,777.557,-96.5722)" style="fill:none; stroke:black; stroke-linecap:round;"/>
<polyline points="548.665,207.054 539.195,207.054 539.195,216.524 " transform="matrix(2.45045,0,0,2.45045,777.557,-96.5722)" style="fill:none; stroke:black; stroke-linecap:round;"/>
<polyline points="491.136,216.524 491.136,207.054 481.666,207.054 " transform="matrix(2.45045,0,0,2.45045,777.557,-96.5722)" style="fill:none; stroke:black; stroke-linecap:round;"/>
<rect x="1957.9" y="269.8" width="164.2" height="164.2" style="fill:none; stroke:#ff0000; stroke-width:4.9; stroke-linecap:round;"/>
</g>
<path style="fill:none; stroke:#ff0000; stroke-width:0.85; stroke-linecap:round;" d="m 184.7,272.8 c 0,4.9 -4,8.9 -8.9,8.9 -0.9,0 -1.8,-0.1 -2.6,-0.4"/>
<path style="fill:none; stroke:#00af00; stroke-width:0.85; stroke-linecap:round;" d="m 234.7,281.4 c -3.7,-1.1 -6.3,-4.5 -6.3,-8.5"/>
<path style="fill:none; stroke:#ff0000; stroke-width:0.85; stroke-linecap:round;" d="m 215.1,316.3 c 0,-4.9 4,-8.9 8.9,-8.9 0.9,0 1.8,0.1 2.6,0.4"/>
<path style="fill:none; stroke:#00af00; stroke-width:0.85; stroke-linecap:round;" d="m 165.2,307.8 c 3.7,1.1 6.3,4.5 6.3,8.5"/>
<polyline points="322.333,166.827 331.803,166.827 331.803,157.357 " transform="matrix(0.851944,0,0,0.851944,29.5511,251.084)" style="fill:none; stroke:black; stroke-linecap:round;"/>
<polyline points="384.863,157.357 384.863,166.827 394.333,166.827 " transform="matrix(0.851944,0,0,0.851944,29.5511,251.084)" style="fill:none; stroke:black; stroke-linecap:round;"/>
<polyline points="394.333,198.887 384.863,198.887 384.863,208.357 " transform="matrix(0.851944,0,0,0.851944,29.5511,251.084)" style="fill:none; stroke:black; stroke-linecap:round;"/>
<polyline points="331.803,208.357 331.803,198.887 322.333,198.887 " transform="matrix(0.851944,0,0,0.851944,29.5511,251.084)" style="fill:none; stroke:black; stroke-linecap:round;"/>
<path style="fill:none; stroke:#ff0000; stroke-width:0.85; stroke-linecap:round;" d="m 6.8,173.8 c 1.9,1.6 3,4 3,6.7 0,1.7 -0.5,3.2 -1.2,4.5"/>
<path style="fill:none; stroke:#ff0000; stroke-width:0.85; stroke-linecap:round;" d="m 68.5,185 c -0.8,-1.3 -1.2,-2.9 -1.2,-4.5 0,-2.7 1.2,-5 3,-6.7"/>
<polyline points="45.167,183.221 35.697,183.221 35.697,192.691 " transform="matrix(0.851944,0,0,0.851944,0.0101,16.2663)" style="fill:none; stroke:black; stroke-linecap:round;"/>
<polyline points="89.333,192.691 45.167,142.691 1,192.691   " transform="matrix(0.851944,0,0,0.851944,0.0101,16.2663)" style="fill:none; stroke:#ff0000; stroke-width:2; stroke-linecap:round;"/>
<polyline points="1,192.691 45.167,218.858 89.333,192.691   " transform="matrix(0.851944,0,0,0.851944,0.0101,16.2663)" style="fill:none; stroke:#0197fd; stroke-width:2; stroke-linecap:round;"/>
<text x="145.5" y="336.6" style="font-family:'Comic Sans MS'; font-size:16.5px; font-style:italic; fill:black; stroke-width:1px;">Parallelogram</text>
<text x="300.1" y="449.1" style="font-family:'Comic Sans MS'; font-size:16.5px; font-style:italic; fill:black; stroke-width:1px;">Rectangle</text>
<text x="27.9" y="460.3" style="font-family:'Comic Sans MS'; font-size:16.5px; font-style:italic; fill:black; stroke-width:1px;">Rhombus</text>
<text x="175.7" y="566.1" style="font-family:'Comic Sans MS'; font-size:16.5px; font-style:italic; fill:black; stroke-width:1px;">Square</text>
<text x="349" y="214.3" style="font-family:'Comic Sans MS'; text-align:center; text-anchor:middle; font-size:16.5px; font-style:italic; fill:black; stroke-width:1px;">Trapezoid (US)</text>
<text x="20.9" y="223.1" style="font-family:'Comic Sans MS'; font-size:16.5px; font-style:italic; fill:black; stroke-width:1px;">Kite</text>
<text x="486.6" y="339.1" style="font-family:'Comic Sans MS'; text-align:center; text-anchor:middle; font-size:16.5px; font-style:italic; fill:black; stroke-width:1px;">Isosceles</text>
<path style="overflow:visible; fill:none; stroke:black; stroke-width:1.58; stroke-linecap:square;" d="m 164.6,53.5 68.4,-8.7 -15.9,-40 -45.8,-4 -6.6,52.7 z"/>
<polyline points="196.387,1 196.387,10.47 186.917,10.47 " transform="matrix(0.851944,0,0,0.851944,327.513,273.963)" style="fill:none; stroke:black; stroke-linecap:round;"/>
<polyline points="186.917,42.598 196.388,42.598 196.388,52.068 " transform="matrix(0.851944,0,0,0.851944,327.513,273.963)" style="fill:none; stroke:black; stroke-linecap:round;"/>
<path style="overflow:visible; fill:none; stroke:black; stroke-width:1.58; stroke-linecap:square;" d="m 444.3,318.6 h 85.4 l -23.5,-43.9 h -38.3 z"/>
<path style="color:black; overflow:visible; fill:#0197fd; stroke:#0197fd; stroke-width:1.7; stroke-linecap:round;" d="m 444.3,318.6 23.6,-43.9 v 0"/>
<path style="color:black; overflow:visible; fill:#0197fd; stroke:#0197fd; stroke-width:1.7; stroke-linecap:round;" d="m 529.6,318.6 -23.4,-44"/>
<text x="144" y="70.8" style="font-family:'Comic Sans MS'; font-size:16.5px; font-style:italic; fill:black; stroke-width:1px;">Quadrilateral</text>
<path style="marker-end:url(#id1); overflow:visible; fill:#f0a513; stroke:#eec73e; stroke-width:3.72; stroke-linecap:round;" d="m 136.9,72.6 -58.5,58.1"/>
<path style="marker-end:url(#id1); overflow:visible; fill:#f0a513; stroke:#eec73e; stroke-width:3.72; stroke-linecap:round;" d="m 265.7,66.6 59.5,55.5"/>
<path style="marker-end:url(#id1); overflow:visible; fill:#f0a513; stroke:#eec73e; stroke-width:3.72; stroke-linecap:round;" d="m 38,252.3 21.5,114.4"/>
<path style="marker-end:url(#id1); overflow:visible; fill:#f0a513; stroke:#eec73e; stroke-width:3.72; stroke-linecap:round;" d="m 281.7,215.7 -47.4,39.7"/>
<path style="marker-end:url(#id1); overflow:visible; fill:#f0a513; stroke:#eec73e; stroke-width:3.72; stroke-linecap:round;" d="m 423.4,216.7 47.3,39.1"/>
<path style="marker-end:url(#id1); overflow:visible; fill:#f0a513; stroke:#eec73e; stroke-width:3.72; stroke-linecap:round;" d="m 441.3,359.1 -56.2,37.7"/>
<path style="marker-end:url(#id1); overflow:visible; fill:#f0a513; stroke:#eec73e; stroke-width:3.72; stroke-linecap:round;" d="m 218.6,349.1 64.7,40.1"/>
<path style="marker-end:url(#id1); overflow:visible; fill:#f0a513; stroke:#eec73e; stroke-width:3.72; stroke-linecap:round;" d="m 303.5,464.8 -44.2,42"/>
<path style="marker-end:url(#id1); overflow:visible; fill:#f0a513; stroke:#eec73e; stroke-width:3.72; stroke-linecap:round;" d="m 110.1,463.2 44.2,42"/>
<path style="marker-end:url(#id1); overflow:visible; fill:#f0a513; stroke:#eec73e; stroke-width:3.72; stroke-linecap:round;" d="m 176.6,351 -64.7,40.1"/>
<path style="fill:none; stroke:#ff0000; stroke-width:0.85; stroke-linecap:round;" d="m 474.4,275.4 c 0,4.9 -4,8.9 -8.9,8.9 -0.9,0 -1.8,-0.1 -2.6,-0.4"/>
<path style="fill:none; stroke:#00af00; stroke-width:0.85; stroke-linecap:round;" d="m 449.3,309.5 c 3.7,1.1 6.3,4.5 6.3,8.5"/>
<path style="fill:none; stroke:#00af00; stroke-width:0.85; stroke-linecap:round;" d="m 523.8,309.5 c -3.7,1.1 -6.3,4.5 -6.3,8.5"/>
<path style="fill:none; stroke:#ff0000; stroke-width:0.85; stroke-linecap:round;" d="m 499.7,275.4 c 0,4.9 4,8.9 8.9,8.9 0.9,0 1.8,-0.1 2.6,-0.4"/>
<text x="349" y="234.3" style="font-family:'Comic Sans MS'; text-align:center; text-anchor:middle; font-size:16.5px; font-style:italic; fill:black; stroke-width:1px;">Trapezium (UK)</text>
<text x="486.6" y="359.1" style="font-family:'Comic Sans MS'; text-align:center; text-anchor:middle; font-size:16.5px; font-style:italic; fill:black; stroke-width:1px;">Trapezoid</text>
<path style="fill:none; stroke:black; stroke-width:1; stroke-dasharray:2, 2;" d="m 0.9,180.5 h 75.3"/>
<path style="fill:none; stroke:black; stroke-width:1; stroke-dasharray:2, 2;" d="m 38.5,137.9 v 64.9"/>
<path style="fill:none; stroke:#ff4141; stroke-width:1.7;" d="m 175.8,272.8 h 61.4"/>
<path style="fill:none; stroke:#ff4141; stroke-width:1.7;" d="m 304.2,385.2 h 61.3"/>
<path style="fill:none; stroke:#ff4141; stroke-width:1.7;" d="m 162.6,316.3 h 61.4"/>
<path style="fill:none; stroke:#ff4141; stroke-width:1.7;" d="m 304.2,428.6 h 61.3"/>
<path style="fill:#0197fd; stroke:#0197fd; stroke-width:1.7; stroke-linecap:round;" d="m 175.8,272.8 -13.2,43.5"/>
<path style="fill:#0197fd; stroke:#0197fd; stroke-width:1.7; stroke-linecap:round;" d="m 237.2,272.8 -13.2,43.5"/>
<path style="fill:#0197fd; stroke:#0197fd; stroke-width:1.7; stroke-linecap:round;" d="m 304.2,428.6 v -43.4"/>
<path style="fill:#0197fd; stroke:#0197fd; stroke-width:1.7; stroke-linecap:round;" d="m 365.5,428.6 v -43.4"/>
<path style="fill:none; stroke:black; stroke-width:0.83; stroke-dasharray:1.7, 1.7;" d="m 337.1,148.8 v 44.3"/>
<path style="fill:none; stroke:black; stroke-width:0.83; stroke-dasharray:1.7, 1.7;" d="m 486.6,275.3 v 44.3"/>
</svg>
